M48
; DRILL file KiCad 10.0.1 date 2026-09-20T17:43:47
; FORMAT={-:-/ absolute / metric / decimal}
; #@! TF.CreationDate,2026-09-20T17:43:47+03:00
; #@! TF.GenerationSoftware,Kicad,Pcbnew,10.0.1
; #@! TF.FileFunction,Plated,1,2,PTH
FMAT,2
METRIC
; #@! TA.AperFunction,Plated,PTH,ViaDrill
T1C0.300
; #@! TA.AperFunction,Plated,PTH,ComponentDrill
T2C0.800
; #@! TA.AperFunction,Plated,PTH,ComponentDrill
T3C1.000
%
G90
G05
T1
X88.4Y-47.05
X112.31Y-50.51
X121.175Y-42.543
X122.097Y-74.09
T2
X117.215Y-49.06
X117.215Y-51.6
X117.215Y-54.14
X117.215Y-56.68
X117.215Y-59.22
X117.215Y-61.76
X117.215Y-64.3
X117.215Y-66.84
X129.915Y-49.06
X129.915Y-51.6
X129.915Y-54.14
X129.915Y-56.68
X129.915Y-59.22
X129.915Y-61.76
X129.915Y-64.3
X129.915Y-66.84
T3
X86.15Y-56.775
X88.69Y-56.775
X94.265Y-41.175
X94.265Y-43.715
X94.265Y-46.255
X94.265Y-48.795
X94.265Y-51.335
X94.265Y-53.875
X94.265Y-56.415
X94.265Y-58.955
X94.265Y-61.495
X94.265Y-64.035
X94.265Y-66.575
X94.265Y-69.115
X94.265Y-71.655
X94.265Y-74.195
X94.265Y-76.735
X107.235Y-32.825
X109.505Y-41.175
X109.505Y-43.715
X109.505Y-46.255
X109.505Y-48.795
X109.505Y-51.335
X109.505Y-53.875
X109.505Y-56.415
X109.505Y-58.955
X109.505Y-61.495
X109.505Y-64.035
X109.505Y-66.575
X109.505Y-69.115
X109.505Y-71.655
X109.505Y-74.195
X109.505Y-76.735
X109.775Y-32.825
X112.315Y-32.825
X134.35Y-54.16
X134.35Y-56.7
X134.35Y-59.24
X134.35Y-61.78
M30
