%TF.GenerationSoftware,KiCad,Pcbnew,10.0.1*%
%TF.CreationDate,2026-09-30T10:37:33+03:00*%
%TF.ProjectId,motorDriver,6d6f746f-7244-4726-9976-65722e6b6963,rev?*%
%TF.SameCoordinates,Original*%
%TF.FileFunction,Copper,L1,Top*%
%TF.FilePolarity,Positive*%
%FSLAX46Y46*%
G04 Gerber Fmt 4.6, Leading zero omitted, Abs format (unit mm)*
G04 Created by KiCad (PCBNEW 10.0.1) date 2026-09-30 10:37:33*
%MOMM*%
%LPD*%
G01*
G04 APERTURE LIST*
G04 Aperture macros list*
%AMRoundRect*
0 Rectangle with rounded corners*
0 $1 Rounding radius*
0 $2 $3 $4 $5 $6 $7 $8 $9 X,Y pos of 4 corners*
0 Add a 4 corners polygon primitive as box body*
4,1,4,$2,$3,$4,$5,$6,$7,$8,$9,$2,$3,0*
0 Add four circle primitives for the rounded corners*
1,1,$1+$1,$2,$3*
1,1,$1+$1,$4,$5*
1,1,$1+$1,$6,$7*
1,1,$1+$1,$8,$9*
0 Add four rect primitives between the rounded corners*
20,1,$1+$1,$2,$3,$4,$5,0*
20,1,$1+$1,$4,$5,$6,$7,0*
20,1,$1+$1,$6,$7,$8,$9,0*
20,1,$1+$1,$8,$9,$2,$3,0*%
G04 Aperture macros list end*
%TA.AperFunction,SMDPad,CuDef*%
%ADD10RoundRect,0.250000X0.337500X0.475000X-0.337500X0.475000X-0.337500X-0.475000X0.337500X-0.475000X0*%
%TD*%
%TA.AperFunction,SMDPad,CuDef*%
%ADD11RoundRect,0.250000X0.475000X-0.337500X0.475000X0.337500X-0.475000X0.337500X-0.475000X-0.337500X0*%
%TD*%
%TA.AperFunction,ComponentPad*%
%ADD12R,1.700000X1.700000*%
%TD*%
%TA.AperFunction,ComponentPad*%
%ADD13C,1.700000*%
%TD*%
%TA.AperFunction,SMDPad,CuDef*%
%ADD14RoundRect,0.250000X-0.350000X-0.450000X0.350000X-0.450000X0.350000X0.450000X-0.350000X0.450000X0*%
%TD*%
%TA.AperFunction,ComponentPad*%
%ADD15RoundRect,0.250000X-1.050000X-1.050000X1.050000X-1.050000X1.050000X1.050000X-1.050000X1.050000X0*%
%TD*%
%TA.AperFunction,ComponentPad*%
%ADD16C,2.600000*%
%TD*%
%TA.AperFunction,SMDPad,CuDef*%
%ADD17RoundRect,0.250000X-0.550000X1.500000X-0.550000X-1.500000X0.550000X-1.500000X0.550000X1.500000X0*%
%TD*%
%TA.AperFunction,SMDPad,CuDef*%
%ADD18RoundRect,0.150000X-0.150000X0.825000X-0.150000X-0.825000X0.150000X-0.825000X0.150000X0.825000X0*%
%TD*%
%TA.AperFunction,SMDPad,CuDef*%
%ADD19RoundRect,0.250000X-0.475000X0.337500X-0.475000X-0.337500X0.475000X-0.337500X0.475000X0.337500X0*%
%TD*%
%TA.AperFunction,SMDPad,CuDef*%
%ADD20RoundRect,0.250000X-0.450000X0.350000X-0.450000X-0.350000X0.450000X-0.350000X0.450000X0.350000X0*%
%TD*%
%TA.AperFunction,SMDPad,CuDef*%
%ADD21RoundRect,0.250000X0.450000X0.350000X-0.450000X0.350000X-0.450000X-0.350000X0.450000X-0.350000X0*%
%TD*%
%TA.AperFunction,ComponentPad*%
%ADD22R,1.600000X1.600000*%
%TD*%
%TA.AperFunction,ComponentPad*%
%ADD23O,1.600000X1.600000*%
%TD*%
%TA.AperFunction,SMDPad,CuDef*%
%ADD24RoundRect,0.137500X-0.600000X-0.137500X0.600000X-0.137500X0.600000X0.137500X-0.600000X0.137500X0*%
%TD*%
%TA.AperFunction,SMDPad,CuDef*%
%ADD25RoundRect,0.137500X-0.137500X-0.600000X0.137500X-0.600000X0.137500X0.600000X-0.137500X0.600000X0*%
%TD*%
%TA.AperFunction,SMDPad,CuDef*%
%ADD26RoundRect,0.250000X0.450000X-0.350000X0.450000X0.350000X-0.450000X0.350000X-0.450000X-0.350000X0*%
%TD*%
%TA.AperFunction,ViaPad*%
%ADD27C,0.600000*%
%TD*%
%TA.AperFunction,Conductor*%
%ADD28C,0.800000*%
%TD*%
%TA.AperFunction,Conductor*%
%ADD29C,0.250000*%
%TD*%
G04 APERTURE END LIST*
D10*
%TO.P,C5,2*%
%TO.N,GND*%
X107112500Y-59250000D03*
%TO.P,C5,1*%
%TO.N,Net-(U1-XTAL1{slash}PB6)*%
X109187500Y-59250000D03*
%TD*%
D11*
%TO.P,C6,2*%
%TO.N,GND*%
X106200000Y-61112500D03*
%TO.P,C6,1*%
%TO.N,Net-(U1-XTAL2{slash}PB7)*%
X106200000Y-63187500D03*
%TD*%
D12*
%TO.P,J3,1,Pin_1_1*%
%TO.N,/MTR_A1*%
X85235000Y-56795000D03*
D13*
%TO.P,J3,2,Pin_2_2*%
%TO.N,/MTR_A2*%
X85235000Y-59335000D03*
%TO.P,J3,3,Pin_3_3*%
%TO.N,/MTR_B1*%
X85235000Y-61875000D03*
%TO.P,J3,4,Pin_4_4*%
%TO.N,/MTR_B2*%
X85235000Y-64415000D03*
%TD*%
D14*
%TO.P,R1,1*%
%TO.N,+5V*%
X112450000Y-68000000D03*
%TO.P,R1,2*%
%TO.N,Net-(J1-Pin_3)*%
X114450000Y-68000000D03*
%TD*%
D15*
%TO.P,J2,1,Pin_1_1*%
%TO.N,VMOT*%
X95800000Y-77300000D03*
D16*
%TO.P,J2,2,Pin_2_2*%
%TO.N,GND*%
X100800000Y-77300000D03*
%TO.P,J2,3,Pin_3_3*%
%TO.N,+5V*%
X105800000Y-77300000D03*
%TD*%
D11*
%TO.P,C4,1*%
%TO.N,Net-(U1-AREF)*%
X123650000Y-61937500D03*
%TO.P,C4,2*%
%TO.N,GND*%
X123650000Y-59862500D03*
%TD*%
D17*
%TO.P,C7,1*%
%TO.N,VMOT*%
X88650000Y-68250000D03*
%TO.P,C7,2*%
%TO.N,GND*%
X88650000Y-73850000D03*
%TD*%
D18*
%TO.P,U2,1,RO_1*%
%TO.N,/Arduino RX*%
X113770000Y-44080000D03*
%TO.P,U2,2,~{RE}_2*%
%TO.N,Net-(U2-~{RE})*%
X112500000Y-44080000D03*
%TO.P,U2,3,DE_3*%
%TO.N,/Transmit*%
X111230000Y-44080000D03*
%TO.P,U2,4,DI_4*%
%TO.N,/Arduino TX*%
X109960000Y-44080000D03*
%TO.P,U2,5,GND_5*%
%TO.N,GND*%
X109960000Y-49030000D03*
%TO.P,U2,6,A_6*%
%TO.N,/RS-485 A*%
X111230000Y-49030000D03*
%TO.P,U2,7,B_7*%
%TO.N,/RS-485 B*%
X112500000Y-49030000D03*
%TO.P,U2,8,VCC_8*%
%TO.N,+5V*%
X113770000Y-49030000D03*
%TD*%
D19*
%TO.P,C1,1*%
%TO.N,+5V*%
X111000000Y-77725000D03*
%TO.P,C1,2*%
%TO.N,GND*%
X111000000Y-79800000D03*
%TD*%
D10*
%TO.P,C2,1*%
%TO.N,+5V*%
X106712500Y-68425000D03*
%TO.P,C2,2*%
%TO.N,GND*%
X104637500Y-68425000D03*
%TD*%
D19*
%TO.P,C3,1*%
%TO.N,+5V*%
X123625000Y-67212500D03*
%TO.P,C3,2*%
%TO.N,GND*%
X123625000Y-69287500D03*
%TD*%
D12*
%TO.P,J1,1,Pin_1_1*%
%TO.N,Net-(J1-Pin_1)*%
X118940000Y-70850000D03*
D13*
%TO.P,J1,2,Pin_2_2*%
%TO.N,Net-(J1-Pin_2)*%
X118940000Y-73390000D03*
%TO.P,J1,3,Pin_3_3*%
%TO.N,Net-(J1-Pin_3)*%
X116400000Y-70850000D03*
%TO.P,J1,4,Pin_4_4*%
%TO.N,GND*%
X116400000Y-73390000D03*
%TO.P,J1,5,Pin_5_5*%
%TO.N,Net-(J1-Pin_5)*%
X113860000Y-70850000D03*
%TO.P,J1,6,Pin_6_6*%
%TO.N,+5V*%
X113860000Y-73390000D03*
%TD*%
D20*
%TO.P,R2,1*%
%TO.N,Net-(U2-~{RE})*%
X123625000Y-49650000D03*
%TO.P,R2,2*%
%TO.N,GND*%
X123625000Y-51650000D03*
%TD*%
D21*
%TO.P,Y1,1,1_1*%
%TO.N,Net-(U1-XTAL1{slash}PB6)*%
X110525000Y-61165000D03*
%TO.P,Y1,2,G_2*%
%TO.N,GND*%
X108325000Y-61165000D03*
%TO.P,Y1,3,3_3*%
%TO.N,Net-(U1-XTAL2{slash}PB7)*%
X108325000Y-62865000D03*
%TO.P,Y1,4,G_4*%
%TO.N,GND*%
X110525000Y-62865000D03*
%TD*%
D22*
%TO.P,A1,1,GND_1*%
%TO.N,GND*%
X89850000Y-46900000D03*
D23*
%TO.P,A1,2,~{FLT}_2*%
%TO.N,/FLT*%
X89850000Y-49440000D03*
%TO.P,A1,3,A2_3*%
%TO.N,/MTR_A2*%
X89850000Y-51980000D03*
%TO.P,A1,4,A1_4*%
%TO.N,/MTR_A1*%
X89850000Y-54520000D03*
%TO.P,A1,5,B1_5*%
%TO.N,/MTR_B1*%
X89850000Y-57060000D03*
%TO.P,A1,6,B2_6*%
%TO.N,/MTR_B2*%
X89850000Y-59600000D03*
%TO.P,A1,7,GND_7*%
%TO.N,GND*%
X89850000Y-62140000D03*
%TO.P,A1,8,VMOT_8*%
%TO.N,VMOT*%
X89850000Y-64680000D03*
%TO.P,A1,9,~{EN}_9*%
%TO.N,/ENABLE*%
X102550000Y-64680000D03*
%TO.P,A1,10,M0_10*%
%TO.N,+5V*%
X102550000Y-62140000D03*
%TO.P,A1,11,M1_11*%
X102550000Y-59600000D03*
%TO.P,A1,12,M2_12*%
X102550000Y-57060000D03*
%TO.P,A1,13,~{RST}_13*%
%TO.N,/DRVR_RST*%
X102550000Y-54520000D03*
%TO.P,A1,14,~{SLP}_14*%
%TO.N,Net-(A1-~{SLP})*%
X102550000Y-51980000D03*
%TO.P,A1,15,STEP_15*%
%TO.N,/STEP*%
X102550000Y-49440000D03*
%TO.P,A1,16,DIR_16*%
%TO.N,/DIR*%
X102550000Y-46900000D03*
%TD*%
D19*
%TO.P,C8,1*%
%TO.N,VMOT*%
X84100000Y-69862500D03*
%TO.P,C8,2*%
%TO.N,GND*%
X84100000Y-71937500D03*
%TD*%
D24*
%TO.P,U1,1,PD3_1*%
%TO.N,/DIR*%
X113287500Y-57940000D03*
%TO.P,U1,2,PD4_2*%
%TO.N,/STEP*%
X113287500Y-58740000D03*
%TO.P,U1,3,GND_3*%
%TO.N,GND*%
X113287500Y-59540000D03*
%TO.P,U1,4,VCC_4*%
%TO.N,+5V*%
X113287500Y-60340000D03*
%TO.P,U1,5,GND_5*%
%TO.N,GND*%
X113287500Y-61140000D03*
%TO.P,U1,6,VCC_6*%
%TO.N,+5V*%
X113287500Y-61940000D03*
%TO.P,U1,7,XTAL1/PB6_7*%
%TO.N,Net-(U1-XTAL1{slash}PB6)*%
X113287500Y-62740000D03*
%TO.P,U1,8,XTAL2/PB7_8*%
%TO.N,Net-(U1-XTAL2{slash}PB7)*%
X113287500Y-63540000D03*
D25*
%TO.P,U1,9,PD5_9*%
%TO.N,/ENABLE*%
X114650000Y-64902500D03*
%TO.P,U1,10,PD6_10*%
%TO.N,/DRVR_RST*%
X115450000Y-64902500D03*
%TO.P,U1,11,PD7_11*%
%TO.N,/FLT*%
X116250000Y-64902500D03*
%TO.P,U1,12,PB0_12*%
%TO.N,unconnected-(U1-PB0-Pad12)*%
X117050000Y-64902500D03*
%TO.P,U1,13,PB1_13*%
%TO.N,unconnected-(U1-PB1-Pad13)*%
X117850000Y-64902500D03*
%TO.P,U1,14,PB2_14*%
%TO.N,unconnected-(U1-PB2-Pad14)*%
X118650000Y-64902500D03*
%TO.P,U1,15,PB3_15*%
%TO.N,Net-(J1-Pin_5)*%
X119450000Y-64902500D03*
%TO.P,U1,16,PB4_16*%
%TO.N,Net-(J1-Pin_1)*%
X120250000Y-64902500D03*
D24*
%TO.P,U1,17,PB5_17*%
%TO.N,Net-(J1-Pin_2)*%
X121612500Y-63540000D03*
%TO.P,U1,18,AVCC_18*%
%TO.N,+5V*%
X121612500Y-62740000D03*
%TO.P,U1,19,ADC6_19*%
%TO.N,unconnected-(U1-ADC6-Pad19)*%
X121612500Y-61940000D03*
%TO.P,U1,20,AREF_20*%
%TO.N,Net-(U1-AREF)*%
X121612500Y-61140000D03*
%TO.P,U1,21,GND_21*%
%TO.N,GND*%
X121612500Y-60340000D03*
%TO.P,U1,22,ADC7_22*%
%TO.N,unconnected-(U1-ADC7-Pad22)*%
X121612500Y-59540000D03*
%TO.P,U1,23,PC0_23*%
%TO.N,unconnected-(U1-PC0-Pad23)*%
X121612500Y-58740000D03*
%TO.P,U1,24,PC1_24*%
%TO.N,unconnected-(U1-PC1-Pad24)*%
X121612500Y-57940000D03*
D25*
%TO.P,U1,25,PC2_25*%
%TO.N,unconnected-(U1-PC2-Pad25)*%
X120250000Y-56577500D03*
%TO.P,U1,26,PC3_26*%
%TO.N,unconnected-(U1-PC3-Pad26)*%
X119450000Y-56577500D03*
%TO.P,U1,27,PC4_27*%
%TO.N,unconnected-(U1-PC4-Pad27)*%
X118650000Y-56577500D03*
%TO.P,U1,28,PC5_28*%
%TO.N,unconnected-(U1-PC5-Pad28)*%
X117850000Y-56577500D03*
%TO.P,U1,29,~{RESET}/PC6_29*%
%TO.N,Net-(J1-Pin_3)*%
X117050000Y-56577500D03*
%TO.P,U1,30,PD0_30*%
%TO.N,/Arduino RX*%
X116250000Y-56577500D03*
%TO.P,U1,31,PD1_31*%
%TO.N,/Arduino TX*%
X115450000Y-56577500D03*
%TO.P,U1,32,PD2_32*%
%TO.N,/Transmit*%
X114650000Y-56577500D03*
%TD*%
D26*
%TO.P,R3,1*%
%TO.N,+5V*%
X105325000Y-57050000D03*
%TO.P,R3,2*%
%TO.N,Net-(A1-~{SLP})*%
X105325000Y-55050000D03*
%TD*%
D12*
%TO.P,J4,1,Pin_1_1*%
%TO.N,/RS-485 A*%
X110550000Y-52100000D03*
D13*
%TO.P,J4,2,Pin_2_2*%
%TO.N,/RS-485 B*%
X113090000Y-52100000D03*
%TD*%
D27*
%TO.N,GND*%
X123650000Y-59862500D03*
%TO.N,+5V*%
X106712500Y-68425000D03*
X113770000Y-49030000D03*
X111850000Y-60350000D03*
%TO.N,Net-(J1-Pin_3)*%
X117050000Y-54950000D03*
X114450000Y-68000000D03*
%TO.N,/Transmit*%
X111850000Y-55100000D03*
X111230000Y-44080000D03*
%TD*%
%TO.N,/MTR_A2*%
D28*
X87050000Y-54780000D02*
X87050000Y-58722081D01*
X89850000Y-51980000D02*
X87050000Y-54780000D01*
X86437081Y-59335000D02*
X85235000Y-59335000D01*
X87050000Y-58722081D02*
X86437081Y-59335000D01*
%TO.N,Net-(U1-XTAL1{slash}PB6)*%
D29*
X109187500Y-59250000D02*
X109187500Y-59827500D01*
X110975001Y-61165000D02*
X112550001Y-62740000D01*
X112550001Y-62740000D02*
X113287500Y-62740000D01*
X110525000Y-61165000D02*
X110975001Y-61165000D01*
X109187500Y-59827500D02*
X110525000Y-61165000D01*
%TO.N,GND*%
X120660000Y-60340000D02*
X119860000Y-59540000D01*
X106250000Y-61062500D02*
X108222500Y-61062500D01*
X110463478Y-62865000D02*
X110525000Y-62865000D01*
X107112500Y-59952500D02*
X108325000Y-61165000D01*
X104637500Y-68425000D02*
X104637500Y-73812500D01*
X119447412Y-74615000D02*
X123625000Y-70437412D01*
X106200000Y-61112500D02*
X106250000Y-61062500D01*
X123650000Y-60230000D02*
X123650000Y-59862500D01*
X108763478Y-61165000D02*
X110463478Y-62865000D01*
X110452894Y-58050000D02*
X111942894Y-59540000D01*
X111942894Y-59540000D02*
X113287500Y-59540000D01*
X107112500Y-59250000D02*
X107112500Y-59952500D01*
X111000000Y-79800000D02*
X102525000Y-79800000D01*
X107112500Y-59250000D02*
X108312500Y-58050000D01*
X123540000Y-60340000D02*
X123650000Y-60230000D01*
D28*
X98900000Y-79550000D02*
X100800000Y-77650000D01*
D29*
X108325000Y-61165000D02*
X108763478Y-61165000D01*
X108222500Y-61062500D02*
X108325000Y-61165000D01*
D28*
X109960000Y-49030000D02*
X106380000Y-45450000D01*
X106380000Y-45450000D02*
X91300000Y-45450000D01*
D29*
X114024999Y-59540000D02*
X114450000Y-59965001D01*
X119860000Y-59540000D02*
X113287500Y-59540000D01*
D28*
X100800000Y-77650000D02*
X100800000Y-77300000D01*
D29*
X123650000Y-51675000D02*
X123625000Y-51650000D01*
X117625000Y-74615000D02*
X119447412Y-74615000D01*
D28*
X91300000Y-45450000D02*
X89850000Y-46900000D01*
D29*
X104637500Y-73812500D02*
X101150000Y-77300000D01*
X123625000Y-70437412D02*
X123625000Y-69287500D01*
X108312500Y-58050000D02*
X110452894Y-58050000D01*
X114450000Y-60714999D02*
X114024999Y-61140000D01*
X113287500Y-59540000D02*
X114024999Y-59540000D01*
X116400000Y-73390000D02*
X117625000Y-74615000D01*
X123650000Y-59862500D02*
X123650000Y-51675000D01*
D28*
X88650000Y-73850000D02*
X94350000Y-79550000D01*
X94350000Y-79550000D02*
X98900000Y-79550000D01*
D29*
X114450000Y-59965001D02*
X114450000Y-60714999D01*
X114024999Y-61140000D02*
X113287500Y-61140000D01*
X101150000Y-77300000D02*
X100800000Y-77300000D01*
X100800000Y-77550000D02*
X100800000Y-77300000D01*
D28*
X86737500Y-71937500D02*
X88650000Y-73850000D01*
D29*
X102525000Y-79800000D02*
X102525000Y-79275000D01*
X121612500Y-60340000D02*
X120660000Y-60340000D01*
X121612500Y-60340000D02*
X123540000Y-60340000D01*
D28*
X84100000Y-71937500D02*
X86737500Y-71937500D01*
D29*
X102525000Y-79275000D02*
X100800000Y-77550000D01*
%TO.N,+5V*%
X111850000Y-60350000D02*
X113277500Y-60350000D01*
X112125000Y-60765001D02*
X112550001Y-60340000D01*
X121612500Y-62740000D02*
X114824306Y-62740000D01*
X106100000Y-77600000D02*
X110875000Y-77600000D01*
X112135000Y-68315000D02*
X112135000Y-71665000D01*
X122278594Y-62740000D02*
X121612500Y-62740000D01*
X105325000Y-57050000D02*
X102560000Y-57050000D01*
X112125000Y-61514999D02*
X112125000Y-60765001D01*
X123625000Y-64086406D02*
X122278594Y-62740000D01*
X114824306Y-62740000D02*
X114024306Y-61940000D01*
X102560000Y-57050000D02*
X102550000Y-57060000D01*
X105800000Y-77300000D02*
X106100000Y-77600000D01*
X110875000Y-77600000D02*
X111000000Y-77725000D01*
X112135000Y-71665000D02*
X113860000Y-73390000D01*
X112450000Y-68000000D02*
X112135000Y-68315000D01*
X113277500Y-60350000D02*
X113287500Y-60340000D01*
X113287500Y-61940000D02*
X112550001Y-61940000D01*
X114024306Y-61940000D02*
X113287500Y-61940000D01*
X106100000Y-77600000D02*
X109650000Y-77600000D01*
X109650000Y-77600000D02*
X113860000Y-73390000D01*
X112550001Y-61940000D02*
X112125000Y-61514999D01*
X123625000Y-67212500D02*
X123625000Y-64086406D01*
X112550001Y-60340000D02*
X113287500Y-60340000D01*
%TO.N,Net-(J1-Pin_3)*%
X112635000Y-71357412D02*
X112635000Y-69815000D01*
X115175000Y-72075000D02*
X113352588Y-72075000D01*
X113352588Y-72075000D02*
X112635000Y-71357412D01*
X117050000Y-56577500D02*
X117050000Y-54950000D01*
X116400000Y-70850000D02*
X115175000Y-72075000D01*
X112635000Y-69815000D02*
X114450000Y-68000000D01*
%TO.N,VMOT*%
D28*
X88650000Y-68250000D02*
X85712500Y-68250000D01*
X88650000Y-65880000D02*
X89850000Y-64680000D01*
X88650000Y-68250000D02*
X88650000Y-70400000D01*
X85712500Y-68250000D02*
X84100000Y-69862500D01*
X88650000Y-68250000D02*
X88650000Y-65880000D01*
X88650000Y-70400000D02*
X95550000Y-77300000D01*
X95550000Y-77300000D02*
X95800000Y-77300000D01*
%TO.N,Net-(U1-AREF)*%
D29*
X123100000Y-61387500D02*
X122597499Y-61387500D01*
X122349999Y-61140000D02*
X121612500Y-61140000D01*
X123650000Y-61937500D02*
X123100000Y-61387500D01*
X122597499Y-61387500D02*
X122349999Y-61140000D01*
%TO.N,/Arduino RX*%
X116250000Y-46560000D02*
X116250000Y-56577500D01*
X113770000Y-44080000D02*
X116250000Y-46560000D01*
%TO.N,Net-(U2-~{RE})*%
X112853553Y-43274829D02*
X112853553Y-43726447D01*
X116075000Y-42100000D02*
X114028382Y-42100000D01*
X123625000Y-49650000D02*
X116075000Y-42100000D01*
X114028382Y-42100000D02*
X112853553Y-43274829D01*
%TO.N,/Transmit*%
X113172500Y-55100000D02*
X114650000Y-56577500D01*
X111850000Y-55100000D02*
X113172500Y-55100000D01*
%TO.N,/Arduino TX*%
X114162328Y-47630000D02*
X115450000Y-48917672D01*
X112535001Y-47630000D02*
X114162328Y-47630000D01*
X115450000Y-48917672D02*
X115450000Y-56577500D01*
X109960000Y-44080000D02*
X109960000Y-45054999D01*
X109960000Y-45054999D02*
X112535001Y-47630000D01*
%TO.N,/RS-485 A*%
X111230000Y-49030000D02*
X111230000Y-51420000D01*
X111230000Y-51420000D02*
X110550000Y-52100000D01*
%TO.N,/RS-485 B*%
X112500000Y-51510000D02*
X113090000Y-52100000D01*
X112500000Y-49030000D02*
X112500000Y-51510000D01*
%TO.N,Net-(U1-XTAL2{slash}PB7)*%
X108325000Y-62865000D02*
X106522500Y-62865000D01*
X109300000Y-63840000D02*
X112987500Y-63840000D01*
X112987500Y-63840000D02*
X113287500Y-63540000D01*
X108325000Y-62865000D02*
X109300000Y-63840000D01*
X106522500Y-62865000D02*
X106200000Y-63187500D01*
%TO.N,Net-(J1-Pin_1)*%
X120250000Y-69540000D02*
X120250000Y-64902500D01*
X118940000Y-70850000D02*
X120250000Y-69540000D01*
%TO.N,Net-(J1-Pin_2)*%
X118940000Y-73390000D02*
X121612500Y-70717500D01*
X121612500Y-70717500D02*
X121612500Y-63540000D01*
%TO.N,Net-(J1-Pin_5)*%
X113860000Y-70850000D02*
X113860000Y-70385405D01*
X118230405Y-66015000D02*
X119074999Y-66015000D01*
X119074999Y-66015000D02*
X119450000Y-65639999D01*
X113860000Y-70385405D02*
X118230405Y-66015000D01*
X119450000Y-65639999D02*
X119450000Y-64902500D01*
%TO.N,/FLT*%
X116250000Y-65639999D02*
X116250000Y-64902500D01*
X100825000Y-65394519D02*
X101995482Y-66565000D01*
X101995482Y-66565000D02*
X115324999Y-66565000D01*
X100825000Y-60415000D02*
X100825000Y-65394519D01*
X115324999Y-66565000D02*
X116250000Y-65639999D01*
X89850000Y-49440000D02*
X100825000Y-60415000D01*
%TO.N,/ENABLE*%
X114427500Y-64680000D02*
X114650000Y-64902500D01*
X102550000Y-64680000D02*
X114427500Y-64680000D01*
%TO.N,/DRVR_RST*%
X101325000Y-55745000D02*
X102550000Y-54520000D01*
X101325000Y-65187412D02*
X101325000Y-55745000D01*
X115450000Y-65639306D02*
X115024306Y-66065000D01*
X115450000Y-64902500D02*
X115450000Y-65639306D01*
X115024306Y-66065000D02*
X102202588Y-66065000D01*
X102202588Y-66065000D02*
X101325000Y-65187412D01*
%TO.N,Net-(A1-~{SLP})*%
X105325000Y-55050000D02*
X105325000Y-54755000D01*
X105325000Y-54755000D02*
X102550000Y-51980000D01*
%TO.N,/STEP*%
X102550000Y-49440000D02*
X111850000Y-58740000D01*
X111850000Y-58740000D02*
X113287500Y-58740000D01*
%TO.N,/DIR*%
X113287500Y-57637500D02*
X113287500Y-57940000D01*
X102550000Y-46900000D02*
X113287500Y-57637500D01*
%TD*%
M02*
