%TF.GenerationSoftware,KiCad,Pcbnew,10.0.1*%
%TF.CreationDate,2026-09-30T10:37:33+03:00*%
%TF.ProjectId,motorDriver,6d6f746f-7244-4726-9976-65722e6b6963,rev?*%
%TF.SameCoordinates,Original*%
%TF.FileFunction,Legend,Top*%
%TF.FilePolarity,Positive*%
%FSLAX46Y46*%
G04 Gerber Fmt 4.6, Leading zero omitted, Abs format (unit mm)*
G04 Created by KiCad (PCBNEW 10.0.1) date 2026-09-30 10:37:33*
%MOMM*%
%LPD*%
G01*
G04 APERTURE LIST*
%ADD10C,0.100000*%
%ADD11C,0.150000*%
%ADD12C,0.120000*%
G04 APERTURE END LIST*
D10*
X84456265Y-47856872D02*
X84932455Y-47856872D01*
X84361027Y-48142587D02*
X84694360Y-47142587D01*
X84694360Y-47142587D02*
X85027693Y-48142587D01*
X85884836Y-48142587D02*
X85313408Y-48142587D01*
X85599122Y-48142587D02*
X85599122Y-47142587D01*
X85599122Y-47142587D02*
X85503884Y-47285444D01*
X85503884Y-47285444D02*
X85408646Y-47380682D01*
X85408646Y-47380682D02*
X85313408Y-47428301D01*
X84456265Y-49466816D02*
X84932455Y-49466816D01*
X84361027Y-49752531D02*
X84694360Y-48752531D01*
X84694360Y-48752531D02*
X85027693Y-49752531D01*
X85313408Y-48847769D02*
X85361027Y-48800150D01*
X85361027Y-48800150D02*
X85456265Y-48752531D01*
X85456265Y-48752531D02*
X85694360Y-48752531D01*
X85694360Y-48752531D02*
X85789598Y-48800150D01*
X85789598Y-48800150D02*
X85837217Y-48847769D01*
X85837217Y-48847769D02*
X85884836Y-48943007D01*
X85884836Y-48943007D02*
X85884836Y-49038245D01*
X85884836Y-49038245D02*
X85837217Y-49181102D01*
X85837217Y-49181102D02*
X85265789Y-49752531D01*
X85265789Y-49752531D02*
X85884836Y-49752531D01*
X84837217Y-50838665D02*
X84980074Y-50886284D01*
X84980074Y-50886284D02*
X85027693Y-50933903D01*
X85027693Y-50933903D02*
X85075312Y-51029141D01*
X85075312Y-51029141D02*
X85075312Y-51171998D01*
X85075312Y-51171998D02*
X85027693Y-51267236D01*
X85027693Y-51267236D02*
X84980074Y-51314856D01*
X84980074Y-51314856D02*
X84884836Y-51362475D01*
X84884836Y-51362475D02*
X84503884Y-51362475D01*
X84503884Y-51362475D02*
X84503884Y-50362475D01*
X84503884Y-50362475D02*
X84837217Y-50362475D01*
X84837217Y-50362475D02*
X84932455Y-50410094D01*
X84932455Y-50410094D02*
X84980074Y-50457713D01*
X84980074Y-50457713D02*
X85027693Y-50552951D01*
X85027693Y-50552951D02*
X85027693Y-50648189D01*
X85027693Y-50648189D02*
X84980074Y-50743427D01*
X84980074Y-50743427D02*
X84932455Y-50791046D01*
X84932455Y-50791046D02*
X84837217Y-50838665D01*
X84837217Y-50838665D02*
X84503884Y-50838665D01*
X86027693Y-51362475D02*
X85456265Y-51362475D01*
X85741979Y-51362475D02*
X85741979Y-50362475D01*
X85741979Y-50362475D02*
X85646741Y-50505332D01*
X85646741Y-50505332D02*
X85551503Y-50600570D01*
X85551503Y-50600570D02*
X85456265Y-50648189D01*
X84837217Y-52448609D02*
X84980074Y-52496228D01*
X84980074Y-52496228D02*
X85027693Y-52543847D01*
X85027693Y-52543847D02*
X85075312Y-52639085D01*
X85075312Y-52639085D02*
X85075312Y-52781942D01*
X85075312Y-52781942D02*
X85027693Y-52877180D01*
X85027693Y-52877180D02*
X84980074Y-52924800D01*
X84980074Y-52924800D02*
X84884836Y-52972419D01*
X84884836Y-52972419D02*
X84503884Y-52972419D01*
X84503884Y-52972419D02*
X84503884Y-51972419D01*
X84503884Y-51972419D02*
X84837217Y-51972419D01*
X84837217Y-51972419D02*
X84932455Y-52020038D01*
X84932455Y-52020038D02*
X84980074Y-52067657D01*
X84980074Y-52067657D02*
X85027693Y-52162895D01*
X85027693Y-52162895D02*
X85027693Y-52258133D01*
X85027693Y-52258133D02*
X84980074Y-52353371D01*
X84980074Y-52353371D02*
X84932455Y-52400990D01*
X84932455Y-52400990D02*
X84837217Y-52448609D01*
X84837217Y-52448609D02*
X84503884Y-52448609D01*
X85456265Y-52067657D02*
X85503884Y-52020038D01*
X85503884Y-52020038D02*
X85599122Y-51972419D01*
X85599122Y-51972419D02*
X85837217Y-51972419D01*
X85837217Y-51972419D02*
X85932455Y-52020038D01*
X85932455Y-52020038D02*
X85980074Y-52067657D01*
X85980074Y-52067657D02*
X86027693Y-52162895D01*
X86027693Y-52162895D02*
X86027693Y-52258133D01*
X86027693Y-52258133D02*
X85980074Y-52400990D01*
X85980074Y-52400990D02*
X85408646Y-52972419D01*
X85408646Y-52972419D02*
X86027693Y-52972419D01*
X93161027Y-70072419D02*
X93494360Y-71072419D01*
X93494360Y-71072419D02*
X93827693Y-70072419D01*
X94161027Y-71072419D02*
X94161027Y-70072419D01*
X94161027Y-70072419D02*
X94494360Y-70786704D01*
X94494360Y-70786704D02*
X94827693Y-70072419D01*
X94827693Y-70072419D02*
X94827693Y-71072419D01*
X95494360Y-70072419D02*
X95684836Y-70072419D01*
X95684836Y-70072419D02*
X95780074Y-70120038D01*
X95780074Y-70120038D02*
X95875312Y-70215276D01*
X95875312Y-70215276D02*
X95922931Y-70405752D01*
X95922931Y-70405752D02*
X95922931Y-70739085D01*
X95922931Y-70739085D02*
X95875312Y-70929561D01*
X95875312Y-70929561D02*
X95780074Y-71024800D01*
X95780074Y-71024800D02*
X95684836Y-71072419D01*
X95684836Y-71072419D02*
X95494360Y-71072419D01*
X95494360Y-71072419D02*
X95399122Y-71024800D01*
X95399122Y-71024800D02*
X95303884Y-70929561D01*
X95303884Y-70929561D02*
X95256265Y-70739085D01*
X95256265Y-70739085D02*
X95256265Y-70405752D01*
X95256265Y-70405752D02*
X95303884Y-70215276D01*
X95303884Y-70215276D02*
X95399122Y-70120038D01*
X95399122Y-70120038D02*
X95494360Y-70072419D01*
X96208646Y-70072419D02*
X96780074Y-70072419D01*
X96494360Y-71072419D02*
X96494360Y-70072419D01*
X99922932Y-70120038D02*
X99827694Y-70072419D01*
X99827694Y-70072419D02*
X99684837Y-70072419D01*
X99684837Y-70072419D02*
X99541980Y-70120038D01*
X99541980Y-70120038D02*
X99446742Y-70215276D01*
X99446742Y-70215276D02*
X99399123Y-70310514D01*
X99399123Y-70310514D02*
X99351504Y-70500990D01*
X99351504Y-70500990D02*
X99351504Y-70643847D01*
X99351504Y-70643847D02*
X99399123Y-70834323D01*
X99399123Y-70834323D02*
X99446742Y-70929561D01*
X99446742Y-70929561D02*
X99541980Y-71024800D01*
X99541980Y-71024800D02*
X99684837Y-71072419D01*
X99684837Y-71072419D02*
X99780075Y-71072419D01*
X99780075Y-71072419D02*
X99922932Y-71024800D01*
X99922932Y-71024800D02*
X99970551Y-70977180D01*
X99970551Y-70977180D02*
X99970551Y-70643847D01*
X99970551Y-70643847D02*
X99780075Y-70643847D01*
X100399123Y-71072419D02*
X100399123Y-70072419D01*
X100399123Y-70072419D02*
X100970551Y-71072419D01*
X100970551Y-71072419D02*
X100970551Y-70072419D01*
X101446742Y-71072419D02*
X101446742Y-70072419D01*
X101446742Y-70072419D02*
X101684837Y-70072419D01*
X101684837Y-70072419D02*
X101827694Y-70120038D01*
X101827694Y-70120038D02*
X101922932Y-70215276D01*
X101922932Y-70215276D02*
X101970551Y-70310514D01*
X101970551Y-70310514D02*
X102018170Y-70500990D01*
X102018170Y-70500990D02*
X102018170Y-70643847D01*
X102018170Y-70643847D02*
X101970551Y-70834323D01*
X101970551Y-70834323D02*
X101922932Y-70929561D01*
X101922932Y-70929561D02*
X101827694Y-71024800D01*
X101827694Y-71024800D02*
X101684837Y-71072419D01*
X101684837Y-71072419D02*
X101446742Y-71072419D01*
X103970552Y-70691466D02*
X104732457Y-70691466D01*
X104351504Y-71072419D02*
X104351504Y-70310514D01*
X105684837Y-70072419D02*
X105208647Y-70072419D01*
X105208647Y-70072419D02*
X105161028Y-70548609D01*
X105161028Y-70548609D02*
X105208647Y-70500990D01*
X105208647Y-70500990D02*
X105303885Y-70453371D01*
X105303885Y-70453371D02*
X105541980Y-70453371D01*
X105541980Y-70453371D02*
X105637218Y-70500990D01*
X105637218Y-70500990D02*
X105684837Y-70548609D01*
X105684837Y-70548609D02*
X105732456Y-70643847D01*
X105732456Y-70643847D02*
X105732456Y-70881942D01*
X105732456Y-70881942D02*
X105684837Y-70977180D01*
X105684837Y-70977180D02*
X105637218Y-71024800D01*
X105637218Y-71024800D02*
X105541980Y-71072419D01*
X105541980Y-71072419D02*
X105303885Y-71072419D01*
X105303885Y-71072419D02*
X105208647Y-71024800D01*
X105208647Y-71024800D02*
X105161028Y-70977180D01*
X106018171Y-70072419D02*
X106351504Y-71072419D01*
X106351504Y-71072419D02*
X106684837Y-70072419D01*
X110356265Y-54986704D02*
X110832455Y-54986704D01*
X110261027Y-55272419D02*
X110594360Y-54272419D01*
X110594360Y-54272419D02*
X110927693Y-55272419D01*
X113118170Y-54748609D02*
X113261027Y-54796228D01*
X113261027Y-54796228D02*
X113308646Y-54843847D01*
X113308646Y-54843847D02*
X113356265Y-54939085D01*
X113356265Y-54939085D02*
X113356265Y-55081942D01*
X113356265Y-55081942D02*
X113308646Y-55177180D01*
X113308646Y-55177180D02*
X113261027Y-55224800D01*
X113261027Y-55224800D02*
X113165789Y-55272419D01*
X113165789Y-55272419D02*
X112784837Y-55272419D01*
X112784837Y-55272419D02*
X112784837Y-54272419D01*
X112784837Y-54272419D02*
X113118170Y-54272419D01*
X113118170Y-54272419D02*
X113213408Y-54320038D01*
X113213408Y-54320038D02*
X113261027Y-54367657D01*
X113261027Y-54367657D02*
X113308646Y-54462895D01*
X113308646Y-54462895D02*
X113308646Y-54558133D01*
X113308646Y-54558133D02*
X113261027Y-54653371D01*
X113261027Y-54653371D02*
X113213408Y-54700990D01*
X113213408Y-54700990D02*
X113118170Y-54748609D01*
X113118170Y-54748609D02*
X112784837Y-54748609D01*
D11*
X107733333Y-57459580D02*
X107685714Y-57507200D01*
X107685714Y-57507200D02*
X107542857Y-57554819D01*
X107542857Y-57554819D02*
X107447619Y-57554819D01*
X107447619Y-57554819D02*
X107304762Y-57507200D01*
X107304762Y-57507200D02*
X107209524Y-57411961D01*
X107209524Y-57411961D02*
X107161905Y-57316723D01*
X107161905Y-57316723D02*
X107114286Y-57126247D01*
X107114286Y-57126247D02*
X107114286Y-56983390D01*
X107114286Y-56983390D02*
X107161905Y-56792914D01*
X107161905Y-56792914D02*
X107209524Y-56697676D01*
X107209524Y-56697676D02*
X107304762Y-56602438D01*
X107304762Y-56602438D02*
X107447619Y-56554819D01*
X107447619Y-56554819D02*
X107542857Y-56554819D01*
X107542857Y-56554819D02*
X107685714Y-56602438D01*
X107685714Y-56602438D02*
X107733333Y-56650057D01*
X108638095Y-56554819D02*
X108161905Y-56554819D01*
X108161905Y-56554819D02*
X108114286Y-57031009D01*
X108114286Y-57031009D02*
X108161905Y-56983390D01*
X108161905Y-56983390D02*
X108257143Y-56935771D01*
X108257143Y-56935771D02*
X108495238Y-56935771D01*
X108495238Y-56935771D02*
X108590476Y-56983390D01*
X108590476Y-56983390D02*
X108638095Y-57031009D01*
X108638095Y-57031009D02*
X108685714Y-57126247D01*
X108685714Y-57126247D02*
X108685714Y-57364342D01*
X108685714Y-57364342D02*
X108638095Y-57459580D01*
X108638095Y-57459580D02*
X108590476Y-57507200D01*
X108590476Y-57507200D02*
X108495238Y-57554819D01*
X108495238Y-57554819D02*
X108257143Y-57554819D01*
X108257143Y-57554819D02*
X108161905Y-57507200D01*
X108161905Y-57507200D02*
X108114286Y-57459580D01*
X106283333Y-65809580D02*
X106235714Y-65857200D01*
X106235714Y-65857200D02*
X106092857Y-65904819D01*
X106092857Y-65904819D02*
X105997619Y-65904819D01*
X105997619Y-65904819D02*
X105854762Y-65857200D01*
X105854762Y-65857200D02*
X105759524Y-65761961D01*
X105759524Y-65761961D02*
X105711905Y-65666723D01*
X105711905Y-65666723D02*
X105664286Y-65476247D01*
X105664286Y-65476247D02*
X105664286Y-65333390D01*
X105664286Y-65333390D02*
X105711905Y-65142914D01*
X105711905Y-65142914D02*
X105759524Y-65047676D01*
X105759524Y-65047676D02*
X105854762Y-64952438D01*
X105854762Y-64952438D02*
X105997619Y-64904819D01*
X105997619Y-64904819D02*
X106092857Y-64904819D01*
X106092857Y-64904819D02*
X106235714Y-64952438D01*
X106235714Y-64952438D02*
X106283333Y-65000057D01*
X107140476Y-64904819D02*
X106950000Y-64904819D01*
X106950000Y-64904819D02*
X106854762Y-64952438D01*
X106854762Y-64952438D02*
X106807143Y-65000057D01*
X106807143Y-65000057D02*
X106711905Y-65142914D01*
X106711905Y-65142914D02*
X106664286Y-65333390D01*
X106664286Y-65333390D02*
X106664286Y-65714342D01*
X106664286Y-65714342D02*
X106711905Y-65809580D01*
X106711905Y-65809580D02*
X106759524Y-65857200D01*
X106759524Y-65857200D02*
X106854762Y-65904819D01*
X106854762Y-65904819D02*
X107045238Y-65904819D01*
X107045238Y-65904819D02*
X107140476Y-65857200D01*
X107140476Y-65857200D02*
X107188095Y-65809580D01*
X107188095Y-65809580D02*
X107235714Y-65714342D01*
X107235714Y-65714342D02*
X107235714Y-65476247D01*
X107235714Y-65476247D02*
X107188095Y-65381009D01*
X107188095Y-65381009D02*
X107140476Y-65333390D01*
X107140476Y-65333390D02*
X107045238Y-65285771D01*
X107045238Y-65285771D02*
X106854762Y-65285771D01*
X106854762Y-65285771D02*
X106759524Y-65333390D01*
X106759524Y-65333390D02*
X106711905Y-65381009D01*
X106711905Y-65381009D02*
X106664286Y-65476247D01*
X84901666Y-53869819D02*
X84901666Y-54584104D01*
X84901666Y-54584104D02*
X84854047Y-54726961D01*
X84854047Y-54726961D02*
X84758809Y-54822200D01*
X84758809Y-54822200D02*
X84615952Y-54869819D01*
X84615952Y-54869819D02*
X84520714Y-54869819D01*
X85282619Y-53869819D02*
X85901666Y-53869819D01*
X85901666Y-53869819D02*
X85568333Y-54250771D01*
X85568333Y-54250771D02*
X85711190Y-54250771D01*
X85711190Y-54250771D02*
X85806428Y-54298390D01*
X85806428Y-54298390D02*
X85854047Y-54346009D01*
X85854047Y-54346009D02*
X85901666Y-54441247D01*
X85901666Y-54441247D02*
X85901666Y-54679342D01*
X85901666Y-54679342D02*
X85854047Y-54774580D01*
X85854047Y-54774580D02*
X85806428Y-54822200D01*
X85806428Y-54822200D02*
X85711190Y-54869819D01*
X85711190Y-54869819D02*
X85425476Y-54869819D01*
X85425476Y-54869819D02*
X85330238Y-54822200D01*
X85330238Y-54822200D02*
X85282619Y-54774580D01*
X110308333Y-68404819D02*
X109975000Y-67928628D01*
X109736905Y-68404819D02*
X109736905Y-67404819D01*
X109736905Y-67404819D02*
X110117857Y-67404819D01*
X110117857Y-67404819D02*
X110213095Y-67452438D01*
X110213095Y-67452438D02*
X110260714Y-67500057D01*
X110260714Y-67500057D02*
X110308333Y-67595295D01*
X110308333Y-67595295D02*
X110308333Y-67738152D01*
X110308333Y-67738152D02*
X110260714Y-67833390D01*
X110260714Y-67833390D02*
X110213095Y-67881009D01*
X110213095Y-67881009D02*
X110117857Y-67928628D01*
X110117857Y-67928628D02*
X109736905Y-67928628D01*
X111260714Y-68404819D02*
X110689286Y-68404819D01*
X110975000Y-68404819D02*
X110975000Y-67404819D01*
X110975000Y-67404819D02*
X110879762Y-67547676D01*
X110879762Y-67547676D02*
X110784524Y-67642914D01*
X110784524Y-67642914D02*
X110689286Y-67690533D01*
X100466666Y-71634819D02*
X100466666Y-72349104D01*
X100466666Y-72349104D02*
X100419047Y-72491961D01*
X100419047Y-72491961D02*
X100323809Y-72587200D01*
X100323809Y-72587200D02*
X100180952Y-72634819D01*
X100180952Y-72634819D02*
X100085714Y-72634819D01*
X100895238Y-71730057D02*
X100942857Y-71682438D01*
X100942857Y-71682438D02*
X101038095Y-71634819D01*
X101038095Y-71634819D02*
X101276190Y-71634819D01*
X101276190Y-71634819D02*
X101371428Y-71682438D01*
X101371428Y-71682438D02*
X101419047Y-71730057D01*
X101419047Y-71730057D02*
X101466666Y-71825295D01*
X101466666Y-71825295D02*
X101466666Y-71920533D01*
X101466666Y-71920533D02*
X101419047Y-72063390D01*
X101419047Y-72063390D02*
X100847619Y-72634819D01*
X100847619Y-72634819D02*
X101466666Y-72634819D01*
X124059580Y-57666666D02*
X124107200Y-57714285D01*
X124107200Y-57714285D02*
X124154819Y-57857142D01*
X124154819Y-57857142D02*
X124154819Y-57952380D01*
X124154819Y-57952380D02*
X124107200Y-58095237D01*
X124107200Y-58095237D02*
X124011961Y-58190475D01*
X124011961Y-58190475D02*
X123916723Y-58238094D01*
X123916723Y-58238094D02*
X123726247Y-58285713D01*
X123726247Y-58285713D02*
X123583390Y-58285713D01*
X123583390Y-58285713D02*
X123392914Y-58238094D01*
X123392914Y-58238094D02*
X123297676Y-58190475D01*
X123297676Y-58190475D02*
X123202438Y-58095237D01*
X123202438Y-58095237D02*
X123154819Y-57952380D01*
X123154819Y-57952380D02*
X123154819Y-57857142D01*
X123154819Y-57857142D02*
X123202438Y-57714285D01*
X123202438Y-57714285D02*
X123250057Y-57666666D01*
X123488152Y-56809523D02*
X124154819Y-56809523D01*
X123107200Y-57047618D02*
X123821485Y-57285713D01*
X123821485Y-57285713D02*
X123821485Y-56666666D01*
X110833333Y-82159580D02*
X110785714Y-82207200D01*
X110785714Y-82207200D02*
X110642857Y-82254819D01*
X110642857Y-82254819D02*
X110547619Y-82254819D01*
X110547619Y-82254819D02*
X110404762Y-82207200D01*
X110404762Y-82207200D02*
X110309524Y-82111961D01*
X110309524Y-82111961D02*
X110261905Y-82016723D01*
X110261905Y-82016723D02*
X110214286Y-81826247D01*
X110214286Y-81826247D02*
X110214286Y-81683390D01*
X110214286Y-81683390D02*
X110261905Y-81492914D01*
X110261905Y-81492914D02*
X110309524Y-81397676D01*
X110309524Y-81397676D02*
X110404762Y-81302438D01*
X110404762Y-81302438D02*
X110547619Y-81254819D01*
X110547619Y-81254819D02*
X110642857Y-81254819D01*
X110642857Y-81254819D02*
X110785714Y-81302438D01*
X110785714Y-81302438D02*
X110833333Y-81350057D01*
X111785714Y-82254819D02*
X111214286Y-82254819D01*
X111500000Y-82254819D02*
X111500000Y-81254819D01*
X111500000Y-81254819D02*
X111404762Y-81397676D01*
X111404762Y-81397676D02*
X111309524Y-81492914D01*
X111309524Y-81492914D02*
X111214286Y-81540533D01*
X102033333Y-68749580D02*
X101985714Y-68797200D01*
X101985714Y-68797200D02*
X101842857Y-68844819D01*
X101842857Y-68844819D02*
X101747619Y-68844819D01*
X101747619Y-68844819D02*
X101604762Y-68797200D01*
X101604762Y-68797200D02*
X101509524Y-68701961D01*
X101509524Y-68701961D02*
X101461905Y-68606723D01*
X101461905Y-68606723D02*
X101414286Y-68416247D01*
X101414286Y-68416247D02*
X101414286Y-68273390D01*
X101414286Y-68273390D02*
X101461905Y-68082914D01*
X101461905Y-68082914D02*
X101509524Y-67987676D01*
X101509524Y-67987676D02*
X101604762Y-67892438D01*
X101604762Y-67892438D02*
X101747619Y-67844819D01*
X101747619Y-67844819D02*
X101842857Y-67844819D01*
X101842857Y-67844819D02*
X101985714Y-67892438D01*
X101985714Y-67892438D02*
X102033333Y-67940057D01*
X102414286Y-67940057D02*
X102461905Y-67892438D01*
X102461905Y-67892438D02*
X102557143Y-67844819D01*
X102557143Y-67844819D02*
X102795238Y-67844819D01*
X102795238Y-67844819D02*
X102890476Y-67892438D01*
X102890476Y-67892438D02*
X102938095Y-67940057D01*
X102938095Y-67940057D02*
X102985714Y-68035295D01*
X102985714Y-68035295D02*
X102985714Y-68130533D01*
X102985714Y-68130533D02*
X102938095Y-68273390D01*
X102938095Y-68273390D02*
X102366667Y-68844819D01*
X102366667Y-68844819D02*
X102985714Y-68844819D01*
X123333333Y-71359580D02*
X123285714Y-71407200D01*
X123285714Y-71407200D02*
X123142857Y-71454819D01*
X123142857Y-71454819D02*
X123047619Y-71454819D01*
X123047619Y-71454819D02*
X122904762Y-71407200D01*
X122904762Y-71407200D02*
X122809524Y-71311961D01*
X122809524Y-71311961D02*
X122761905Y-71216723D01*
X122761905Y-71216723D02*
X122714286Y-71026247D01*
X122714286Y-71026247D02*
X122714286Y-70883390D01*
X122714286Y-70883390D02*
X122761905Y-70692914D01*
X122761905Y-70692914D02*
X122809524Y-70597676D01*
X122809524Y-70597676D02*
X122904762Y-70502438D01*
X122904762Y-70502438D02*
X123047619Y-70454819D01*
X123047619Y-70454819D02*
X123142857Y-70454819D01*
X123142857Y-70454819D02*
X123285714Y-70502438D01*
X123285714Y-70502438D02*
X123333333Y-70550057D01*
X123666667Y-70454819D02*
X124285714Y-70454819D01*
X124285714Y-70454819D02*
X123952381Y-70835771D01*
X123952381Y-70835771D02*
X124095238Y-70835771D01*
X124095238Y-70835771D02*
X124190476Y-70883390D01*
X124190476Y-70883390D02*
X124238095Y-70931009D01*
X124238095Y-70931009D02*
X124285714Y-71026247D01*
X124285714Y-71026247D02*
X124285714Y-71264342D01*
X124285714Y-71264342D02*
X124238095Y-71359580D01*
X124238095Y-71359580D02*
X124190476Y-71407200D01*
X124190476Y-71407200D02*
X124095238Y-71454819D01*
X124095238Y-71454819D02*
X123809524Y-71454819D01*
X123809524Y-71454819D02*
X123714286Y-71407200D01*
X123714286Y-71407200D02*
X123666667Y-71359580D01*
X122254819Y-50766666D02*
X121778628Y-51099999D01*
X122254819Y-51338094D02*
X121254819Y-51338094D01*
X121254819Y-51338094D02*
X121254819Y-50957142D01*
X121254819Y-50957142D02*
X121302438Y-50861904D01*
X121302438Y-50861904D02*
X121350057Y-50814285D01*
X121350057Y-50814285D02*
X121445295Y-50766666D01*
X121445295Y-50766666D02*
X121588152Y-50766666D01*
X121588152Y-50766666D02*
X121683390Y-50814285D01*
X121683390Y-50814285D02*
X121731009Y-50861904D01*
X121731009Y-50861904D02*
X121778628Y-50957142D01*
X121778628Y-50957142D02*
X121778628Y-51338094D01*
X121350057Y-50385713D02*
X121302438Y-50338094D01*
X121302438Y-50338094D02*
X121254819Y-50242856D01*
X121254819Y-50242856D02*
X121254819Y-50004761D01*
X121254819Y-50004761D02*
X121302438Y-49909523D01*
X121302438Y-49909523D02*
X121350057Y-49861904D01*
X121350057Y-49861904D02*
X121445295Y-49814285D01*
X121445295Y-49814285D02*
X121540533Y-49814285D01*
X121540533Y-49814285D02*
X121683390Y-49861904D01*
X121683390Y-49861904D02*
X122254819Y-50433332D01*
X122254819Y-50433332D02*
X122254819Y-49814285D01*
X108861309Y-65378628D02*
X108861309Y-65854819D01*
X108527976Y-64854819D02*
X108861309Y-65378628D01*
X108861309Y-65378628D02*
X109194642Y-64854819D01*
X110051785Y-65854819D02*
X109480357Y-65854819D01*
X109766071Y-65854819D02*
X109766071Y-64854819D01*
X109766071Y-64854819D02*
X109670833Y-64997676D01*
X109670833Y-64997676D02*
X109575595Y-65092914D01*
X109575595Y-65092914D02*
X109480357Y-65140533D01*
X95485714Y-44529104D02*
X95961904Y-44529104D01*
X95390476Y-44814819D02*
X95723809Y-43814819D01*
X95723809Y-43814819D02*
X96057142Y-44814819D01*
X96914285Y-44814819D02*
X96342857Y-44814819D01*
X96628571Y-44814819D02*
X96628571Y-43814819D01*
X96628571Y-43814819D02*
X96533333Y-43957676D01*
X96533333Y-43957676D02*
X96438095Y-44052914D01*
X96438095Y-44052914D02*
X96342857Y-44100533D01*
X84459580Y-74066666D02*
X84507200Y-74114285D01*
X84507200Y-74114285D02*
X84554819Y-74257142D01*
X84554819Y-74257142D02*
X84554819Y-74352380D01*
X84554819Y-74352380D02*
X84507200Y-74495237D01*
X84507200Y-74495237D02*
X84411961Y-74590475D01*
X84411961Y-74590475D02*
X84316723Y-74638094D01*
X84316723Y-74638094D02*
X84126247Y-74685713D01*
X84126247Y-74685713D02*
X83983390Y-74685713D01*
X83983390Y-74685713D02*
X83792914Y-74638094D01*
X83792914Y-74638094D02*
X83697676Y-74590475D01*
X83697676Y-74590475D02*
X83602438Y-74495237D01*
X83602438Y-74495237D02*
X83554819Y-74352380D01*
X83554819Y-74352380D02*
X83554819Y-74257142D01*
X83554819Y-74257142D02*
X83602438Y-74114285D01*
X83602438Y-74114285D02*
X83650057Y-74066666D01*
X83983390Y-73495237D02*
X83935771Y-73590475D01*
X83935771Y-73590475D02*
X83888152Y-73638094D01*
X83888152Y-73638094D02*
X83792914Y-73685713D01*
X83792914Y-73685713D02*
X83745295Y-73685713D01*
X83745295Y-73685713D02*
X83650057Y-73638094D01*
X83650057Y-73638094D02*
X83602438Y-73590475D01*
X83602438Y-73590475D02*
X83554819Y-73495237D01*
X83554819Y-73495237D02*
X83554819Y-73304761D01*
X83554819Y-73304761D02*
X83602438Y-73209523D01*
X83602438Y-73209523D02*
X83650057Y-73161904D01*
X83650057Y-73161904D02*
X83745295Y-73114285D01*
X83745295Y-73114285D02*
X83792914Y-73114285D01*
X83792914Y-73114285D02*
X83888152Y-73161904D01*
X83888152Y-73161904D02*
X83935771Y-73209523D01*
X83935771Y-73209523D02*
X83983390Y-73304761D01*
X83983390Y-73304761D02*
X83983390Y-73495237D01*
X83983390Y-73495237D02*
X84031009Y-73590475D01*
X84031009Y-73590475D02*
X84078628Y-73638094D01*
X84078628Y-73638094D02*
X84173866Y-73685713D01*
X84173866Y-73685713D02*
X84364342Y-73685713D01*
X84364342Y-73685713D02*
X84459580Y-73638094D01*
X84459580Y-73638094D02*
X84507200Y-73590475D01*
X84507200Y-73590475D02*
X84554819Y-73495237D01*
X84554819Y-73495237D02*
X84554819Y-73304761D01*
X84554819Y-73304761D02*
X84507200Y-73209523D01*
X84507200Y-73209523D02*
X84459580Y-73161904D01*
X84459580Y-73161904D02*
X84364342Y-73114285D01*
X84364342Y-73114285D02*
X84173866Y-73114285D01*
X84173866Y-73114285D02*
X84078628Y-73161904D01*
X84078628Y-73161904D02*
X84031009Y-73209523D01*
X84031009Y-73209523D02*
X83983390Y-73304761D01*
X105754819Y-59066666D02*
X105278628Y-59399999D01*
X105754819Y-59638094D02*
X104754819Y-59638094D01*
X104754819Y-59638094D02*
X104754819Y-59257142D01*
X104754819Y-59257142D02*
X104802438Y-59161904D01*
X104802438Y-59161904D02*
X104850057Y-59114285D01*
X104850057Y-59114285D02*
X104945295Y-59066666D01*
X104945295Y-59066666D02*
X105088152Y-59066666D01*
X105088152Y-59066666D02*
X105183390Y-59114285D01*
X105183390Y-59114285D02*
X105231009Y-59161904D01*
X105231009Y-59161904D02*
X105278628Y-59257142D01*
X105278628Y-59257142D02*
X105278628Y-59638094D01*
X104754819Y-58733332D02*
X104754819Y-58114285D01*
X104754819Y-58114285D02*
X105135771Y-58447618D01*
X105135771Y-58447618D02*
X105135771Y-58304761D01*
X105135771Y-58304761D02*
X105183390Y-58209523D01*
X105183390Y-58209523D02*
X105231009Y-58161904D01*
X105231009Y-58161904D02*
X105326247Y-58114285D01*
X105326247Y-58114285D02*
X105564342Y-58114285D01*
X105564342Y-58114285D02*
X105659580Y-58161904D01*
X105659580Y-58161904D02*
X105707200Y-58209523D01*
X105707200Y-58209523D02*
X105754819Y-58304761D01*
X105754819Y-58304761D02*
X105754819Y-58590475D01*
X105754819Y-58590475D02*
X105707200Y-58685713D01*
X105707200Y-58685713D02*
X105659580Y-58733332D01*
X107624819Y-52433333D02*
X108339104Y-52433333D01*
X108339104Y-52433333D02*
X108481961Y-52480952D01*
X108481961Y-52480952D02*
X108577200Y-52576190D01*
X108577200Y-52576190D02*
X108624819Y-52719047D01*
X108624819Y-52719047D02*
X108624819Y-52814285D01*
X107958152Y-51528571D02*
X108624819Y-51528571D01*
X107577200Y-51766666D02*
X108291485Y-52004761D01*
X108291485Y-52004761D02*
X108291485Y-51385714D01*
%TO.C,C5*%
D12*
X108411252Y-59985000D02*
X107888748Y-59985000D01*
X108411252Y-58515000D02*
X107888748Y-58515000D01*
%TO.C,C6*%
X106935000Y-62411252D02*
X106935000Y-61888748D01*
X105465000Y-62411252D02*
X105465000Y-61888748D01*
%TO.C,J3*%
X83855000Y-55415000D02*
X85235000Y-55415000D01*
X83855000Y-56795000D02*
X83855000Y-55415000D01*
X83855000Y-58065000D02*
X83855000Y-65795000D01*
X83855000Y-58065000D02*
X86615000Y-58065000D01*
X83855000Y-65795000D02*
X86615000Y-65795000D01*
X86615000Y-58065000D02*
X86615000Y-65795000D01*
%TO.C,R1*%
X113222936Y-67265000D02*
X113677064Y-67265000D01*
X113222936Y-68735000D02*
X113677064Y-68735000D01*
%TO.C,J2*%
X93180000Y-73180000D02*
X108420000Y-73180000D01*
X93180000Y-80800000D02*
X108420000Y-80800000D01*
X93180000Y-81900000D02*
X108420000Y-81900000D01*
X93180000Y-82420000D02*
X93180000Y-73180000D01*
X95500000Y-82420000D02*
X93180000Y-82420000D01*
X108420000Y-73180000D02*
X108420000Y-82420000D01*
X108420000Y-82420000D02*
X96100000Y-82420000D01*
X96240000Y-83030000D02*
X95360000Y-83030000D01*
X95800000Y-82420000D01*
X96240000Y-83030000D01*
G36*
X96240000Y-83030000D02*
G01*
X95360000Y-83030000D01*
X95800000Y-82420000D01*
X96240000Y-83030000D01*
G37*
%TO.C,C4*%
X122915000Y-61161252D02*
X122915000Y-60638748D01*
X124385000Y-61161252D02*
X124385000Y-60638748D01*
%TO.C,C7*%
X85240000Y-68704437D02*
X85240000Y-74460000D01*
X85240000Y-74460000D02*
X87590000Y-74460000D01*
X86304437Y-67640000D02*
X85240000Y-68704437D01*
X86304437Y-67640000D02*
X87590000Y-67640000D01*
X90497500Y-66612500D02*
X90497500Y-67400000D01*
X90891250Y-67006250D02*
X90103750Y-67006250D01*
X90995563Y-67640000D02*
X89710000Y-67640000D01*
X90995563Y-67640000D02*
X92060000Y-68704437D01*
X92060000Y-68704437D02*
X92060000Y-74460000D01*
X92060000Y-74460000D02*
X89710000Y-74460000D01*
%TO.C,U2*%
X109305000Y-44495000D02*
X109400000Y-44495000D01*
X109305000Y-48615000D02*
X109305000Y-44495000D01*
X109400000Y-48615000D02*
X109305000Y-48615000D01*
X114330000Y-44495000D02*
X114425000Y-44495000D01*
X114425000Y-44495000D02*
X114425000Y-48615000D01*
X114425000Y-48615000D02*
X114330000Y-48615000D01*
X114665000Y-44195000D02*
X114335000Y-43955000D01*
X114665000Y-43715000D01*
X114665000Y-44195000D01*
G36*
X114665000Y-44195000D02*
G01*
X114335000Y-43955000D01*
X114665000Y-43715000D01*
X114665000Y-44195000D01*
G37*
%TO.C,C1*%
X110265000Y-78501248D02*
X110265000Y-79023752D01*
X111735000Y-78501248D02*
X111735000Y-79023752D01*
%TO.C,C2*%
X105936252Y-67690000D02*
X105413748Y-67690000D01*
X105936252Y-69160000D02*
X105413748Y-69160000D01*
%TO.C,C3*%
X122890000Y-67988748D02*
X122890000Y-68511252D01*
X124360000Y-67988748D02*
X124360000Y-68511252D01*
%TO.C,J1*%
X112480000Y-69470000D02*
X112480000Y-74770000D01*
X117670000Y-69470000D02*
X112480000Y-69470000D01*
X117670000Y-69470000D02*
X117670000Y-72120000D01*
X117670000Y-72120000D02*
X120320000Y-72120000D01*
X118940000Y-69470000D02*
X120320000Y-69470000D01*
X120320000Y-69470000D02*
X120320000Y-70850000D01*
X120320000Y-72120000D02*
X120320000Y-74770000D01*
X120320000Y-74770000D02*
X112480000Y-74770000D01*
%TO.C,R2*%
X122890000Y-50422936D02*
X122890000Y-50877064D01*
X124360000Y-50422936D02*
X124360000Y-50877064D01*
%TO.C,Y1*%
X111485000Y-60305000D02*
X107365000Y-60305000D01*
X111485000Y-63725000D02*
X111485000Y-60305000D01*
%TO.C,A1*%
X88450000Y-45500000D02*
X88450000Y-46900000D01*
X88450000Y-48170000D02*
X88450000Y-66080000D01*
X88450000Y-66080000D02*
X103950000Y-66080000D01*
X89850000Y-45500000D02*
X88450000Y-45500000D01*
X91120000Y-45500000D02*
X91120000Y-48170000D01*
X91120000Y-48170000D02*
X88450000Y-48170000D01*
X91120000Y-48170000D02*
X91120000Y-66080000D01*
X101280000Y-45500000D02*
X101280000Y-66080000D01*
X103950000Y-45500000D02*
X91120000Y-45500000D01*
X103950000Y-66080000D02*
X103950000Y-45500000D01*
%TO.C,C8*%
X83365000Y-70638748D02*
X83365000Y-71161252D01*
X84835000Y-70638748D02*
X84835000Y-71161252D01*
%TO.C,U1*%
X113840000Y-57130000D02*
X114115000Y-57130000D01*
X113840000Y-57405000D02*
X113840000Y-57130000D01*
X113840000Y-64350000D02*
X113840000Y-64075000D01*
X114115000Y-64350000D02*
X113840000Y-64350000D01*
X120785000Y-57130000D02*
X121060000Y-57130000D01*
X121060000Y-57130000D02*
X121060000Y-57405000D01*
X121060000Y-64075000D02*
X121060000Y-64350000D01*
X121060000Y-64350000D02*
X120785000Y-64350000D01*
X113200000Y-57400000D02*
X112860000Y-56930000D01*
X113540000Y-56930000D01*
X113200000Y-57400000D01*
G36*
X113200000Y-57400000D02*
G01*
X112860000Y-56930000D01*
X113540000Y-56930000D01*
X113200000Y-57400000D01*
G37*
%TO.C,R3*%
X104590000Y-56277064D02*
X104590000Y-55822936D01*
X106060000Y-56277064D02*
X106060000Y-55822936D01*
%TO.C,J4*%
X109170000Y-53480000D02*
X109170000Y-52100000D01*
X110550000Y-53480000D02*
X109170000Y-53480000D01*
X111820000Y-50720000D02*
X114470000Y-50720000D01*
X111820000Y-53480000D02*
X111820000Y-50720000D01*
X111820000Y-53480000D02*
X114470000Y-53480000D01*
X114470000Y-53480000D02*
X114470000Y-50720000D01*
%TD*%
M02*
