M48
; DRILL file KiCad 10.0.1 date 2026-09-30T10:37:09
; FORMAT={-:-/ absolute / metric / decimal}
; #@! TF.CreationDate,2026-09-30T10:37:09+03:00
; #@! TF.GenerationSoftware,Kicad,Pcbnew,10.0.1
; #@! TF.FileFunction,Plated,1,2,PTH
FMAT,2
METRIC
; #@! TA.AperFunction,Plated,PTH,ViaDrill
T1C0.300
; #@! TA.AperFunction,Plated,PTH,ComponentDrill
T2C0.800
; #@! TA.AperFunction,Plated,PTH,ComponentDrill
T3C1.000
; #@! TA.AperFunction,Plated,PTH,ComponentDrill
T4C1.300
%
G90
G05
T1
X106.712Y-68.425
X111.23Y-44.08
X111.85Y-55.1
X111.85Y-60.35
X113.77Y-49.03
X114.45Y-68.0
X117.05Y-54.95
X123.65Y-59.862
T2
X89.85Y-46.9
X89.85Y-49.44
X89.85Y-51.98
X89.85Y-54.52
X89.85Y-57.06
X89.85Y-59.6
X89.85Y-62.14
X89.85Y-64.68
X102.55Y-46.9
X102.55Y-49.44
X102.55Y-51.98
X102.55Y-54.52
X102.55Y-57.06
X102.55Y-59.6
X102.55Y-62.14
X102.55Y-64.68
T3
X85.235Y-56.795
X85.235Y-59.335
X85.235Y-61.875
X85.235Y-64.415
X110.55Y-52.1
X113.09Y-52.1
X113.86Y-70.85
X113.86Y-73.39
X116.4Y-70.85
X116.4Y-73.39
X118.94Y-70.85
X118.94Y-73.39
T4
X95.8Y-77.3
X100.8Y-77.3
X105.8Y-77.3
M30
